<svg width="130" height="30" viewBox="0 0 130 30" fill="none" xmlns="http://www.w3.org/2000/svg">
<g clip-path="url(#clip0_20_367)">
<path fill-rule="evenodd" clip-rule="evenodd" d="M40 15C40.0002 13.0756 40.5556 11.1921 41.5997 9.57548C42.6438 7.9589 44.1322 6.67793 45.8863 5.88627C47.6403 5.0946 49.5856 4.82588 51.4885 5.11234C53.3915 5.3988 55.1715 6.22828 56.6147 7.50124C58.058 8.7742 59.1033 10.4366 59.6252 12.2889C60.1471 14.1412 60.1235 16.1048 59.5571 17.944C58.9908 19.7832 57.9057 21.4199 56.4322 22.6577C54.9587 23.8956 53.1593 24.6819 51.25 24.9225V17.5H53.75C54.0815 17.5 54.3995 17.3683 54.6339 17.1339C54.8683 16.8995 55 16.5815 55 16.25C55 15.9185 54.8683 15.6005 54.6339 15.3661C54.3995 15.1317 54.0815 15 53.75 15H51.25V12.5C51.25 12.1685 51.3817 11.8505 51.6161 11.6161C51.8505 11.3817 52.1685 11.25 52.5 11.25H53.125C53.4565 11.25 53.7745 11.1183 54.0089 10.8839C54.2433 10.6495 54.375 10.3315 54.375 10C54.375 9.66848 54.2433 9.35054 54.0089 9.11612C53.7745 8.8817 53.4565 8.75 53.125 8.75H52.5C51.5054 8.75 50.5516 9.14509 49.8483 9.84835C49.1451 10.5516 48.75 11.5054 48.75 12.5V15H46.25C45.9185 15 45.6005 15.1317 45.3661 15.3661C45.1317 15.6005 45 15.9185 45 16.25C45 16.5815 45.1317 16.8995 45.3661 17.1339C45.6005 17.3683 45.9185 17.5 46.25 17.5H48.75V24.9225C46.3334 24.6178 44.111 23.4416 42.5 21.6147C40.889 19.7878 40 17.4358 40 15ZM50 27.5C56.9037 27.5 62.5 21.9037 62.5 15C62.5 8.09625 56.9037 2.5 50 2.5C43.0963 2.5 37.5 8.09625 37.5 15C37.5 21.9037 43.0963 27.5 50 27.5Z" fill="black"/>
</g>
<path d="M9.75 2.5H20.25C24.25 2.5 27.5 5.75 27.5 9.75V20.25C27.5 22.1728 26.7362 24.0169 25.3765 25.3765C24.0169 26.7362 22.1728 27.5 20.25 27.5H9.75C5.75 27.5 2.5 24.25 2.5 20.25V9.75C2.5 7.82718 3.26384 5.98311 4.62348 4.62348C5.98311 3.26384 7.82718 2.5 9.75 2.5ZM9.5 5C8.30653 5 7.16193 5.47411 6.31802 6.31802C5.47411 7.16193 5 8.30653 5 9.5V20.5C5 22.9875 7.0125 25 9.5 25H20.5C21.6935 25 22.8381 24.5259 23.682 23.682C24.5259 22.8381 25 21.6935 25 20.5V9.5C25 7.0125 22.9875 5 20.5 5H9.5ZM21.5625 6.875C21.9769 6.875 22.3743 7.03962 22.6674 7.33265C22.9604 7.62567 23.125 8.0231 23.125 8.4375C23.125 8.8519 22.9604 9.24933 22.6674 9.54235C22.3743 9.83538 21.9769 10 21.5625 10C21.1481 10 20.7507 9.83538 20.4576 9.54235C20.1646 9.24933 20 8.8519 20 8.4375C20 8.0231 20.1646 7.62567 20.4576 7.33265C20.7507 7.03962 21.1481 6.875 21.5625 6.875ZM15 8.75C16.6576 8.75 18.2473 9.40848 19.4194 10.5806C20.5915 11.7527 21.25 13.3424 21.25 15C21.25 16.6576 20.5915 18.2473 19.4194 19.4194C18.2473 20.5915 16.6576 21.25 15 21.25C13.3424 21.25 11.7527 20.5915 10.5806 19.4194C9.40848 18.2473 8.75 16.6576 8.75 15C8.75 13.3424 9.40848 11.7527 10.5806 10.5806C11.7527 9.40848 13.3424 8.75 15 8.75ZM15 11.25C14.0054 11.25 13.0516 11.6451 12.3483 12.3483C11.6451 13.0516 11.25 14.0054 11.25 15C11.25 15.9946 11.6451 16.9484 12.3483 17.6517C13.0516 18.3549 14.0054 18.75 15 18.75C15.9946 18.75 16.9484 18.3549 17.6517 17.6517C18.3549 16.9484 18.75 15.9946 18.75 15C18.75 14.0054 18.3549 13.0516 17.6517 12.3483C16.9484 11.6451 15.9946 11.25 15 11.25Z" fill="black"/>
<path d="M96.4855 12.8374C96.4403 12.5876 96.3088 12.3616 96.114 12.1989C95.9192 12.0361 95.6734 11.9469 95.4195 11.9469H85.2167C84.9293 11.9469 84.6538 12.0611 84.4506 12.2642C84.2475 12.4674 84.1333 12.743 84.1333 13.0303V17.2206C84.1333 17.5079 84.2475 17.7835 84.4506 17.9866C84.6538 18.1898 84.9293 18.3039 85.2167 18.3039H89.5088C89.2032 18.8199 88.7842 19.2596 88.2836 19.5899C87.3679 20.1704 86.3006 20.4663 85.2167 20.4403C84.0928 20.4275 83.0016 20.0608 82.098 19.3924C81.1945 18.7239 80.5246 17.7878 80.1835 16.7169V16.7147C79.8041 15.6025 79.8041 14.3959 80.1835 13.2838V13.2816C80.5249 12.211 81.1949 11.2751 82.0984 10.6069C83.002 9.93875 84.093 9.57217 85.2167 9.55927C85.841 9.5449 86.462 9.65396 87.0441 9.88021C87.6262 10.1065 88.1578 10.4454 88.6086 10.8777C88.8132 11.0737 89.0864 11.1818 89.3697 11.1787C89.653 11.1757 89.9238 11.0618 90.1242 10.8614L93.2312 7.75444C93.3341 7.65159 93.4153 7.52905 93.4698 7.39415C93.5244 7.25924 93.5512 7.11472 93.5487 6.96923C93.5461 6.82373 93.5143 6.68024 93.4551 6.5473C93.3959 6.41437 93.3105 6.29473 93.2041 6.19552C91.0418 4.16813 88.1806 3.05323 85.2167 3.0831C83.0065 3.07652 80.8385 3.68757 78.957 4.84736C77.0756 6.00714 75.5557 7.66952 74.5686 9.64702L74.5675 9.64919C73.7307 11.3084 73.2965 13.1415 73.3 14.9998C73.3026 16.8577 73.7365 18.6897 74.5675 20.3514L74.5686 20.3525C75.5557 22.33 77.0756 23.9924 78.957 25.1522C80.8385 26.312 83.0065 26.923 85.2167 26.9164C88.1259 26.9902 90.9533 25.9488 93.1196 24.0055L93.1207 24.0044C94.2949 22.8749 95.2199 21.5123 95.8363 20.0041C96.4527 18.4959 96.7469 16.8754 96.7 15.2468C96.7004 14.4389 96.6286 13.6326 96.4855 12.8374ZM85.2167 5.24977C87.2435 5.23019 89.2224 5.86589 90.8587 7.06219L89.2846 8.63627C88.0904 7.80987 86.6688 7.37525 85.2167 7.3926C83.8909 7.39915 82.5907 7.75893 81.4502 8.43489C80.3096 9.11085 79.3698 10.0786 78.7275 11.2384L77.5705 10.3414L76.9367 9.8496C77.8086 8.43903 79.0275 7.27553 80.477 6.47023C81.9266 5.66494 83.5584 5.24474 85.2167 5.24977ZM75.9867 18.1447C75.2943 16.1052 75.2943 13.8943 75.9867 11.8549L77.9172 13.352C77.6703 14.4367 77.6703 15.5629 77.9172 16.6475L75.9867 18.1447ZM85.2167 24.7498C83.5582 24.755 81.9262 24.3349 80.4764 23.5296C79.0266 22.7243 77.8076 21.5607 76.9357 20.1499L77.3462 19.8314L78.7286 18.7589C79.3704 19.9191 80.3099 20.8872 81.4503 21.5636C82.5907 22.24 83.8908 22.6001 85.2167 22.6069C86.4578 22.6218 87.6849 22.3434 88.7982 21.7944L90.6301 23.2169C89.0184 24.2553 87.1335 24.789 85.2167 24.7498ZM92.2865 21.7598L92.0882 21.6049L90.5965 20.4468C91.3791 19.6014 91.9051 18.5508 92.1132 17.4178C92.1421 17.2614 92.1363 17.1006 92.0961 16.9467C92.0559 16.7928 91.9823 16.6497 91.8805 16.5275C91.7788 16.4053 91.6514 16.3069 91.5073 16.2395C91.3633 16.1721 91.2062 16.1372 91.0472 16.1373H86.3V14.1136H94.4781C94.5149 14.4874 94.5333 14.8665 94.5333 15.2468C94.5965 17.6177 93.7983 19.9323 92.2865 21.7598Z" fill="black"/>
<path d="M113.02 17.5115L114.078 17.2671C114.114 17.2591 114.149 17.2495 114.183 17.2383C114.365 17.1895 114.533 17.0975 114.672 16.97C114.81 16.8426 114.916 16.6835 114.98 16.5063C115.044 16.3291 115.064 16.1391 115.039 15.9525C115.014 15.7658 114.943 15.588 114.835 15.4343C114.716 15.2838 114.57 15.1578 114.403 15.0634C114.207 14.9513 114.001 14.8561 113.788 14.7788L112.627 14.3547C111.975 14.1123 111.322 13.876 110.666 13.646C110.239 13.4936 109.875 13.3614 109.563 13.2636C109.504 13.245 109.438 13.2277 109.385 13.209C109.104 13.1117 108.811 13.0555 108.514 13.0423C108.359 13.0361 108.205 13.0644 108.063 13.1254C107.921 13.1863 107.794 13.2782 107.692 13.3945C107.638 13.4551 107.588 13.5184 107.541 13.5842C107.45 13.7235 107.375 13.8725 107.318 14.0284C107.102 14.6652 106.994 15.3336 107.002 16.0064C107.005 16.6145 107.02 17.395 107.355 17.924C107.435 18.0599 107.543 18.1774 107.672 18.269C107.91 18.4329 108.15 18.4545 108.4 18.4717C108.774 18.499 109.138 18.407 109.499 18.3236L113.016 17.51L113.02 17.5115ZM124.835 11.8894C124.546 11.2827 124.157 10.7288 123.685 10.2506C123.565 10.136 123.432 10.0348 123.29 9.94877C123.22 9.91004 123.148 9.87502 123.074 9.84383C122.932 9.78439 122.777 9.75754 122.623 9.76525C122.469 9.77296 122.318 9.81503 122.182 9.88839C121.978 9.98902 121.759 10.15 121.469 10.4203C121.428 10.4605 121.378 10.5065 121.334 10.5482C121.093 10.7725 120.826 11.0513 120.508 11.3748C120.02 11.8707 119.535 12.3681 119.057 12.8726L118.197 13.7639C118.04 13.9264 117.896 14.1019 117.769 14.2886C117.659 14.4462 117.582 14.6241 117.543 14.8118C117.519 14.9554 117.523 15.1022 117.553 15.2445C117.553 15.2517 117.556 15.2575 117.557 15.2632C117.625 15.5581 117.804 15.8152 118.058 15.9804C118.311 16.1455 118.619 16.2059 118.916 16.1487C118.951 16.1437 118.987 16.137 119.022 16.1286L123.6 15.0706C123.961 14.9872 124.328 14.9096 124.653 14.7227C124.87 14.5962 125.077 14.4711 125.219 14.2196C125.295 14.0806 125.34 13.9273 125.353 13.7696C125.425 13.1458 125.097 12.4371 124.835 11.8894ZM116.64 13.8142C116.971 13.3973 116.971 12.7763 116.999 12.2689C117.1 10.5712 117.205 8.87352 117.288 7.17583C117.32 6.53183 117.389 5.89646 117.352 5.24958C117.32 4.71483 117.316 4.10102 116.978 3.66258C116.384 2.88921 115.113 2.95246 114.245 3.07177C113.979 3.10771 113.713 3.15802 113.45 3.22127C113.188 3.28299 112.927 3.35443 112.67 3.43546C111.836 3.70858 110.667 4.2074 110.47 5.16621C110.358 5.70815 110.623 6.26302 110.828 6.75752C111.077 7.35696 111.418 7.89602 111.727 8.46096C112.546 9.95021 113.38 11.4308 114.211 12.9129C114.458 13.3556 114.728 13.9148 115.21 14.1448C115.241 14.1592 115.274 14.1707 115.308 14.1808C115.523 14.2627 115.757 14.2785 115.982 14.2268L116.022 14.2167C116.229 14.1605 116.417 14.0481 116.564 13.8918C116.591 13.8668 116.616 13.8419 116.64 13.8142ZM116.243 18.3581C116.098 18.1542 115.884 18.0085 115.642 17.9469C115.399 17.8853 115.142 17.9119 114.917 18.0218C114.843 18.0587 114.774 18.102 114.708 18.1511C114.521 18.2985 114.354 18.4695 114.211 18.66C114.173 18.7075 114.139 18.7707 114.096 18.8095L113.36 19.823C112.943 20.3908 112.53 20.96 112.122 21.5379C111.856 21.9116 111.625 22.2265 111.444 22.5053L111.34 22.6635C111.122 23.0013 110.998 23.2471 110.935 23.467C110.888 23.6125 110.873 23.7666 110.892 23.9184C110.91 24.0765 110.963 24.2303 111.047 24.3669C111.091 24.4345 111.139 24.5006 111.191 24.5653C111.3 24.6924 111.424 24.8067 111.56 24.906C112.498 25.5413 113.587 25.9181 114.717 25.9985C114.885 26.004 115.053 25.991 115.218 25.9596C115.298 25.9409 115.376 25.9179 115.453 25.8906C115.602 25.8342 115.738 25.747 115.852 25.6348C115.961 25.5266 116.044 25.3961 116.097 25.2524C116.182 25.0411 116.238 24.7708 116.274 24.3712L116.291 24.1843C116.32 23.8523 116.334 23.4627 116.355 23.0041C116.391 22.2998 116.419 21.5954 116.442 20.8925L116.489 19.6418C116.508 19.341 116.481 19.0391 116.41 18.7463C116.375 18.6088 116.32 18.4778 116.243 18.3581ZM124.556 20.316C124.345 20.1017 124.104 19.9187 123.841 19.7726L123.68 19.6763C123.393 19.5038 123.05 19.3227 122.646 19.1042C122.028 18.765 121.41 18.4343 120.784 18.1051L119.682 17.5201C119.624 17.5028 119.567 17.4626 119.512 17.4353C119.3 17.327 119.075 17.2468 118.842 17.1966C118.762 17.181 118.68 17.1724 118.598 17.1708C118.348 17.1717 118.106 17.2611 117.915 17.4232C117.724 17.5852 117.597 17.8095 117.556 18.0563C117.539 18.1966 117.544 18.3387 117.57 18.4775C117.625 18.7707 117.757 19.0611 117.892 19.3155L118.482 20.4195C118.809 21.0434 119.141 21.6615 119.482 22.2796C119.701 22.6821 119.885 23.0271 120.054 23.3132C120.087 23.3664 120.123 23.4239 120.152 23.4742C120.36 23.8178 120.527 24.0348 120.697 24.1886C120.809 24.2976 120.944 24.3801 121.092 24.4301C121.241 24.4801 121.398 24.4963 121.553 24.4776C121.635 24.4681 121.715 24.4542 121.795 24.4359C121.957 24.3915 122.114 24.3293 122.262 24.2505C122.711 23.9992 123.124 23.6899 123.491 23.3305C123.931 22.8992 124.321 22.4248 124.624 21.8843C124.667 21.8081 124.703 21.7276 124.733 21.6471C124.762 21.5714 124.786 21.4941 124.807 21.4157C124.825 21.3352 124.838 21.2561 124.848 21.1742C124.863 21.0154 124.845 20.8553 124.794 20.7041C124.744 20.559 124.663 20.4265 124.556 20.316Z" fill="black"/>
<defs>
<clipPath id="clip0_20_367">
<rect width="30" height="30" fill="white" transform="translate(35)"/>
</clipPath>
</defs>
</svg>
