<svg width="23" height="23" viewBox="0 0 23 23" fill="none" xmlns="http://www.w3.org/2000/svg">
<path d="M6.02049 14.5115L7.07849 14.2671C7.11389 14.2591 7.14891 14.2495 7.18343 14.2383C7.36537 14.1895 7.53283 14.0975 7.67153 13.97C7.81023 13.8426 7.91606 13.6835 7.98002 13.5063C8.04397 13.3291 8.06415 13.1391 8.03883 12.9525C8.01352 12.7658 7.94345 12.588 7.83462 12.4343C7.71632 12.2838 7.56984 12.1578 7.40337 12.0634C7.20671 11.9513 7.00089 11.8561 6.78812 11.7788L5.62662 11.3547C4.9753 11.1123 4.32169 10.876 3.66587 10.646C3.23893 10.4936 2.87524 10.3614 2.5633 10.2636C2.50437 10.245 2.43824 10.2277 2.38505 10.209C2.10424 10.1117 1.81083 10.0555 1.51393 10.0423C1.3593 10.0361 1.20523 10.0644 1.06298 10.1254C0.920722 10.1863 0.793869 10.2782 0.69168 10.3945C0.638117 10.4551 0.587736 10.5184 0.540742 10.5842C0.450193 10.7235 0.375461 10.8725 0.31793 11.0284C0.102305 11.6652 -0.00550759 12.3336 0.00167991 13.0064C0.00455491 13.6145 0.0203674 14.395 0.355305 14.924C0.435453 15.0599 0.543187 15.1774 0.671555 15.269C0.91018 15.4329 1.15024 15.4545 1.40037 15.4717C1.77412 15.499 2.1378 15.407 2.49862 15.3236L6.01618 14.51L6.02049 14.5115ZM17.8353 8.88939C17.5462 8.28275 17.1575 7.72883 16.6853 7.25065C16.5648 7.13604 16.4323 7.03483 16.29 6.94877C16.22 6.91004 16.148 6.87502 16.0744 6.84383C15.9316 6.78439 15.7774 6.75754 15.623 6.76525C15.4686 6.77296 15.3178 6.81503 15.1817 6.88839C14.9776 6.98902 14.7591 7.15002 14.4687 7.42027C14.4284 7.46052 14.3781 7.50652 14.3336 7.54821C14.0935 7.77246 13.8261 8.05133 13.5084 8.37477C13.0197 8.87071 12.5352 9.36808 12.0566 9.87265L11.1969 10.7639C11.0396 10.9264 10.8963 11.1019 10.7686 11.2886C10.6592 11.4462 10.5824 11.6241 10.5429 11.8118C10.5193 11.9554 10.5227 12.1022 10.5529 12.2445C10.5529 12.2517 10.5558 12.2575 10.5572 12.2632C10.6248 12.5581 10.8042 12.8152 11.0576 12.9804C11.311 13.1455 11.6186 13.2059 11.9157 13.1487C11.9514 13.1437 11.9869 13.137 12.0221 13.1286L16.6005 12.0706C16.9613 11.9872 17.3279 11.9096 17.6527 11.7227C17.8698 11.5962 18.0768 11.4711 18.2191 11.2196C18.2946 11.0806 18.3402 10.9273 18.3528 10.7696C18.4247 10.1458 18.0969 9.43708 17.8353 8.88939ZM9.64012 10.8142C9.97074 10.3973 9.97074 9.77633 9.99949 9.2689C10.1001 7.57121 10.2051 5.87352 10.2884 4.17583C10.3201 3.53183 10.3891 2.89646 10.3517 2.24958C10.3201 1.71483 10.3157 1.10102 9.97793 0.662583C9.38424 -0.110792 8.11349 -0.0475424 7.24524 0.0717701C6.9793 0.107708 6.71337 0.15802 6.4503 0.22127C6.18756 0.282986 5.92719 0.354431 5.66974 0.435458C4.83599 0.708583 3.6673 1.2074 3.47037 2.16621C3.35824 2.70815 3.62274 3.26302 3.8283 3.75752C4.07699 4.35696 4.41768 4.89602 4.72674 5.46096C5.54612 6.95021 6.37987 8.43083 7.21074 9.9129C7.45799 10.3556 7.72824 10.9148 8.2098 11.1448C8.24143 11.1592 8.27449 11.1707 8.30755 11.1808C8.52318 11.2627 8.75749 11.2785 8.98174 11.2268L9.02199 11.2167C9.22916 11.1605 9.41673 11.0481 9.56393 10.8918C9.59068 10.8668 9.61611 10.8419 9.64012 10.8142ZM9.24337 15.3581C9.09772 15.1542 8.8845 15.0085 8.64158 14.9469C8.39866 14.8853 8.14177 14.9119 7.91655 15.0218C7.84343 15.0587 7.77369 15.102 7.70812 15.1511C7.52094 15.2985 7.35375 15.4695 7.21074 15.66C7.17337 15.7075 7.13887 15.7707 7.09574 15.8095L6.35974 16.823C5.94287 17.3908 5.5303 17.96 5.12205 18.5379C4.85612 18.9116 4.62468 19.2265 4.44355 19.5053L4.34005 19.6635C4.12155 20.0013 3.99793 20.2471 3.93468 20.467C3.88758 20.6125 3.87286 20.7666 3.89155 20.9184C3.91024 21.0765 3.96343 21.2303 4.0468 21.3669C4.09137 21.4345 4.1388 21.5006 4.19055 21.5653C4.30044 21.6924 4.42438 21.8067 4.55999 21.906C5.4979 22.5413 6.58674 22.9181 7.71674 22.9985C7.88489 23.004 8.05313 22.991 8.21843 22.9596C8.29772 22.9409 8.37594 22.9179 8.45274 22.8906C8.60235 22.8342 8.73847 22.747 8.85237 22.6348C8.9607 22.5266 9.04411 22.3961 9.09674 22.2524C9.18155 22.0411 9.23762 21.7708 9.27355 21.3712L9.2908 21.1843C9.31955 20.8523 9.33393 20.4627 9.35549 20.0041C9.39143 19.2998 9.41874 18.5954 9.44174 17.8925L9.48918 16.6418C9.50789 16.341 9.48124 16.0391 9.41012 15.7463C9.37501 15.6088 9.31967 15.4778 9.24337 15.3581ZM17.5564 17.316C17.3449 17.1017 17.1038 16.9187 16.8406 16.7726L16.6796 16.6763C16.3935 16.5038 16.0499 16.3227 15.646 16.1042C15.0279 15.765 14.4097 15.4343 13.7844 15.1051L12.6819 14.5201C12.6244 14.5028 12.5669 14.4626 12.5122 14.4353C12.3003 14.327 12.0751 14.2468 11.8424 14.1966C11.7618 14.181 11.68 14.1724 11.598 14.1708C11.3477 14.1717 11.1059 14.2611 10.9152 14.4232C10.7245 14.5852 10.5972 14.8095 10.5558 15.0563C10.5387 15.1966 10.5435 15.3387 10.5702 15.4775C10.6248 15.7707 10.7571 16.0611 10.8922 16.3155L11.4816 17.4195C11.8093 18.0434 12.1414 18.6615 12.4821 19.2796C12.7006 19.6821 12.8846 20.0271 13.0542 20.3132C13.0872 20.3664 13.1232 20.4239 13.1519 20.4742C13.3604 20.8178 13.5271 21.0348 13.6967 21.1886C13.809 21.2976 13.9442 21.3801 14.0924 21.4301C14.2406 21.4801 14.3982 21.4963 14.5535 21.4776C14.6347 21.4681 14.7153 21.4542 14.795 21.4359C14.9571 21.3915 15.1138 21.3293 15.2622 21.2505C15.7106 20.9992 16.1239 20.6899 16.4912 20.3305C16.9311 19.8992 17.3207 19.4248 17.624 18.8843C17.6671 18.8081 17.7031 18.7276 17.7332 18.6471C17.7618 18.5714 17.7863 18.4941 17.8066 18.4157C17.8252 18.3352 17.8382 18.2561 17.8482 18.1742C17.8632 18.0154 17.8445 17.8553 17.7936 17.7041C17.7439 17.559 17.6629 17.4265 17.5564 17.316Z" fill="black"/>
</svg>
