<svg width="26" height="26" viewBox="0 0 26 26" fill="none" xmlns="http://www.w3.org/2000/svg">
<path d="M24.4854 10.8379C24.4403 10.5881 24.3088 10.3621 24.1139 10.1994C23.9191 10.0366 23.6733 9.94743 23.4194 9.94743H13.2166C12.9293 9.94743 12.6537 10.0616 12.4506 10.2647C12.2474 10.4679 12.1333 10.7434 12.1333 11.0308V15.2211C12.1333 15.5084 12.2474 15.784 12.4506 15.9871C12.6537 16.1903 12.9293 16.3044 13.2166 16.3044H17.5088C17.2031 16.8204 16.7841 17.2601 16.2835 17.5903C15.3678 18.1709 14.3005 18.4668 13.2166 18.4408C12.0928 18.4279 11.0015 18.0613 10.098 17.3929C9.19445 16.7244 8.52454 15.7883 8.18345 14.7173V14.7152C7.804 13.603 7.804 12.3964 8.18345 11.2843V11.2821C8.52487 10.2115 9.1949 9.27562 10.0984 8.60743C11.0019 7.93923 12.0929 7.57266 13.2166 7.55976C13.8409 7.54538 14.462 7.65445 15.0441 7.8807C15.6261 8.10695 16.1578 8.44593 16.6085 8.87818C16.8131 9.07419 17.0863 9.18226 17.3696 9.17922C17.6529 9.17619 17.9238 9.06228 18.1241 8.86193L21.2311 5.75493C21.3341 5.65208 21.4152 5.52954 21.4698 5.39463C21.5243 5.25973 21.5511 5.11521 21.5486 4.96972C21.5461 4.82422 21.5143 4.68072 21.4551 4.54779C21.3959 4.41486 21.3105 4.29522 21.204 4.19601C19.0417 2.16862 16.1806 1.05372 13.2166 1.08359C11.0065 1.07701 8.83842 1.68806 6.957 2.84785C5.07558 4.00763 3.55562 5.67001 2.56853 7.64751L2.56745 7.64968C1.73064 9.30892 1.29641 11.1419 1.29995 13.0003C1.30253 14.8582 1.73642 16.6902 2.56745 18.3519L2.56853 18.353C3.55562 20.3305 5.07558 21.9929 6.957 23.1527C8.83842 24.3125 11.0065 24.9235 13.2166 24.9169C16.1259 24.9907 18.9532 23.9493 21.1195 22.006L21.1206 22.0049C22.2948 20.8754 23.2199 19.5128 23.8363 18.0046C24.4527 16.4963 24.7469 14.8759 24.6999 13.2473C24.7004 12.4394 24.6286 11.633 24.4854 10.8379ZM13.2166 3.25026C15.2434 3.23068 17.2224 3.86638 18.8586 5.06268L17.2845 6.63676C16.0903 5.81036 14.6687 5.37574 13.2166 5.39309C11.8908 5.39964 10.5907 5.75942 9.45012 6.43538C8.30955 7.11134 7.36974 8.07907 6.72745 9.23893L5.57045 8.34193L4.9367 7.85009C5.8085 6.43952 7.0274 5.27602 8.47697 4.47072C9.92655 3.66542 11.5584 3.24523 13.2166 3.25026ZM3.98661 16.1452C3.29421 14.1057 3.29421 11.8948 3.98661 9.85534L5.91711 11.3525C5.67026 12.4371 5.67026 13.5634 5.91711 14.648L3.98661 16.1452ZM13.2166 22.7503C11.5582 22.7555 9.92614 22.3354 8.47636 21.5301C7.02659 20.7248 5.80752 19.5612 4.93561 18.1504L5.3462 17.8319L6.72853 16.7594C7.37037 17.9196 8.30987 18.8877 9.45027 19.5641C10.5907 20.2404 11.8907 20.6006 13.2166 20.6074C14.4578 20.6223 15.6849 20.3439 16.7981 19.7949L18.63 21.2173C17.0184 22.2558 15.1334 22.7895 13.2166 22.7503ZM20.2864 19.7603L20.0882 19.6053L18.5964 18.4473C19.3791 17.6019 19.9051 16.5513 20.1131 15.4183C20.1421 15.2619 20.1362 15.1011 20.096 14.9472C20.0558 14.7933 19.9822 14.6502 19.8805 14.528C19.7787 14.4058 19.6513 14.3074 19.5073 14.24C19.3633 14.1725 19.2061 14.1376 19.0471 14.1378H14.2999V12.1141H22.478C22.5149 12.4878 22.5333 12.867 22.5333 13.2473C22.5965 15.6182 21.7982 17.9328 20.2864 19.7603Z" fill="black"/>
</svg>
